<svg width="213" height="166" viewBox="0 0 213 166" fill="none" xmlns="http://www.w3.org/2000/svg">
<ellipse cx="107" cy="101.733" rx="63" ry="63.7326" fill="#FEACAC"/>
<circle cx="40" cy="52" r="4" fill="#FEACAC"/>
<circle cx="174" cy="48" r="4" fill="#FEACAC"/>
<circle cx="61" cy="8" r="8" fill="#FEACAC"/>
<circle cx="162" cy="26" r="8" fill="#FEACAC"/>
<circle cx="9" cy="80" r="9" fill="#FEACAC"/>
<circle cx="204" cy="21" r="9" fill="#FEACAC"/>
<path fill-rule="evenodd" clip-rule="evenodd" d="M119.232 98.4893L131.468 86.4924C134.844 83.1859 134.844 77.8023 131.468 74.4958C128.088 71.1681 122.611 71.1681 119.232 74.4958L106.999 86.4924L94.7654 74.4958C91.3895 71.1681 85.9121 71.1681 82.5319 74.4958C79.156 77.8023 79.156 83.1859 82.5319 86.4924L94.7654 98.4893L82.5319 110.507C79.156 113.814 79.156 119.198 82.5319 122.504C85.9121 125.832 91.3895 125.832 94.7654 122.504L106.999 110.507L119.232 122.504C122.611 125.832 128.088 125.832 131.468 122.504C134.844 119.198 134.844 113.814 131.468 110.507L119.232 98.4893Z" fill="#EF2525"/>
</svg>
